<svg width="42" height="42" viewBox="0 0 42 42" fill="none" xmlns="http://www.w3.org/2000/svg">
<path fill-rule="evenodd" clip-rule="evenodd" d="M0 9C0 4.0293 4.0293 0 9 0H33C37.9707 0 42 4.0293 42 9V33C42 37.9707 37.9707 42 33 42H9C4.0293 42 0 37.9707 0 33V9ZM27 15C27 18.3135 24.3135 21 21 21C17.6865 21 15 18.3135 15 15C15 11.6865 17.6865 9 21 9C24.3135 9 27 11.6865 27 15ZM12 25C9.79102 25 8 26.791 8 29C8 31.209 9.79102 33 12 33H30C32.209 33 34 31.209 34 29C34 26.791 32.209 25 30 25H12Z" fill="white"/>
</svg>
