<svg width="42" height="41" viewBox="0 0 42 41" fill="none" xmlns="http://www.w3.org/2000/svg">
<path d="M21 0C9.40275 0 0 9.3226 0 20.821C0 30.5774 6.776 38.7409 15.911 41C15.813 40.7189 15.75 40.3927 15.75 39.9885V36.4298C14.8978 36.4298 13.4697 36.4298 13.111 36.4298C11.6742 36.4298 10.3967 35.8173 9.77725 34.6791C9.0895 33.4142 8.9705 31.4796 7.266 30.2963C6.76025 29.9024 7.14525 29.453 7.728 29.5138C8.80425 29.8157 9.69675 30.5479 10.5367 31.634C11.3732 32.7219 11.767 32.9683 13.3297 32.9683C14.0875 32.9683 15.2215 32.9249 16.289 32.7584C16.863 31.313 17.8552 29.9822 19.068 29.3541C12.075 28.641 8.73775 25.1917 8.73775 20.5087C8.73775 18.4925 9.604 16.5423 11.0758 14.8992C10.5928 13.2682 9.9855 9.94202 11.2613 8.67541C14.4078 8.67541 16.31 10.6985 16.7668 11.2451C18.3348 10.7124 20.0567 10.4105 21.8662 10.4105C23.6792 10.4105 25.4082 10.7124 26.9797 11.2485C27.4312 10.7055 29.3353 8.67541 32.4888 8.67541C33.7698 9.94376 33.1555 13.2838 32.6672 14.9113C34.1302 16.551 34.9913 18.496 34.9913 20.5087C34.9913 25.1882 31.6592 28.6358 24.6767 29.3524C26.5982 30.3466 28 33.1401 28 35.2447V39.9885C28 40.1689 27.9598 40.299 27.9388 40.4535C36.1218 37.6097 42 29.9059 42 20.821C42 9.3226 32.5972 0 21 0Z" fill="white"/>
</svg>
