<svg width="20" height="20" viewBox="0 0 20 20" fill="none" xmlns="http://www.w3.org/2000/svg">
<path d="M6.07432 4.08974C8.68652 3.86267 11.3135 3.86267 13.9257 4.08974L15.1842 4.19914C16.022 4.27197 16.7396 4.77169 17.1114 5.48651C17.1589 5.57795 17.1233 5.68867 17.0356 5.74293L11.814 8.97537C10.6941 9.66863 9.28203 9.68318 8.1481 9.01313L2.89158 5.907C2.80665 5.85682 2.76767 5.75352 2.80594 5.6626C3.14607 4.85463 3.91076 4.27781 4.81579 4.19914L6.07432 4.08974Z" fill="white"/>
<path d="M2.80166 7.30579C2.67169 7.22899 2.50586 7.31164 2.49071 7.46184C2.27926 9.5582 2.33044 11.6744 2.64424 13.7612C2.80966 14.8613 3.7075 15.7046 4.81579 15.801L6.07432 15.9104C8.68652 16.1374 11.3135 16.1374 13.9257 15.9104L15.1842 15.801C16.2925 15.7046 17.1904 14.8613 17.3558 13.7612C17.6787 11.6136 17.7235 9.43484 17.4902 7.27862C17.4738 7.12736 17.3051 7.04624 17.1758 7.12632L12.472 10.0382C10.9568 10.9761 9.04633 10.9958 7.51219 10.0893L2.80166 7.30579Z" fill="white"/>
</svg>
